<?xml version="1.0" encoding="UTF-8"?>
<svg width="393px" height="489px" viewBox="0 0 393 489" version="1.1" xmlns="http://www.w3.org/2000/svg" xmlns:xlink="http://www.w3.org/1999/xlink">
    <title>shopping-bag</title>
    <g id="Page-1" stroke="none" stroke-width="1" fill="none" fill-rule="evenodd">
        <g id="Desktop-HD" transform="translate(-504.000000, -267.000000)" fill="#FFFFFF" fill-rule="nonzero">
            <g id="shopping-bag" transform="translate(504.000000, 267.000000)">
                <path d="M392.1,422.7 L364.1,107.4 C363.5,100.4 357.6,95.1 350.7,95.1 L293.1,95.1 C292.3,42.5 249.3,0 196.5,0 C143.7,0 100.7,42.5 99.9,95.1 L42.3,95.1 C35.3,95.1 29.5,100.4 28.9,107.4 L0.9,422.7 C0.9,423.1 0.8,423.5 0.8,423.9 C0.8,459.8 33.7,489 74.2,489 L318.8,489 C359.3,489 392.2,459.8 392.2,423.9 C392.2,423.5 392.2,423.1 392.1,422.7 Z M196.5,32.05 C228.900144,32.05 255.316092,57.9413363 256,90.05 L137,90.05 C137.683908,57.9413363 164.099856,32.05 196.5,32.05 Z M310.680498,451.1 L82.3195021,451.1 C58.6058091,451.1 39.373444,435.37781 39,416.005827 L64.0207469,133.1 L106.219917,133.1 L131.427386,133.1 L261.479253,133.1 L286.686722,133.1 L328.885892,133.1 L354,416.005827 C353.626556,435.37781 334.30083,451.1 310.680498,451.1 Z" id="Shape"></path>
            </g>
        </g>
    </g>
</svg>