<?xml version="1.0" encoding="UTF-8"?>
<svg width="290px" height="290px" viewBox="0 0 290 290" version="1.1" xmlns="http://www.w3.org/2000/svg" xmlns:xlink="http://www.w3.org/1999/xlink">
    <title>delivery</title>
    <g id="Style-Guide" stroke="none" stroke-width="1" fill="none" fill-rule="evenodd">
        <g id="Introduction" transform="translate(-969.000000, -678.000000)" fill="#F68B1F" fill-rule="nonzero">
            <g id="delivery" transform="translate(969.000000, 678.000000)">
                <path d="M88.5,210 C85.464,210 83,212.464 83,215.5 C83,218.536 85.464,221 88.5,221 C91.536,221 94,218.536 94,215.5 C94,212.464 91.536,210 88.5,210 Z" id="Path"></path>
                <path d="M254.96342,107.617409 L288.341089,74.2394104 C289.745207,72.835279 290.311045,70.7984672 289.833566,68.8715391 C289.356087,66.9440445 287.903825,65.4079395 286.006369,64.8222712 L204.727278,39.7359548 C197.400265,16.1840442 175.623133,0 150.663372,0 C127.461165,0 106.710359,14.1404355 98.1219623,35.4714509 L3.97755262,64.8273689 C2.08519414,65.4175685 0.638596245,66.9548063 0.164515416,68.8800352 C-0.309565413,70.8046977 0.256839401,72.8381111 1.65869131,74.2399768 L35.914288,108.495911 L14.3093428,144.505452 C13.4251849,145.978685 13.2580955,147.77364 13.8539534,149.385077 C14.4498112,150.996515 15.745179,152.249981 17.3752921,152.793169 L48.7105056,163.237776 L48.7105056,250.352828 C48.7105056,252.713626 50.1752284,254.826904 52.3859064,255.656128 C71.5456821,262.840478 142.734271,289.539931 143.116594,289.675303 C144.240341,290.071224 145.506256,290.125033 146.740452,289.725714 C146.756878,289.720049 146.77387,289.716651 146.790296,289.710987 L248.743162,255.726363 C251.055793,254.955479 252.616238,252.790658 252.616238,250.352828 L252.616238,160.905298 L286.03299,150.40405 C287.922516,149.810452 289.364583,148.273214 289.836398,146.349684 C290.307647,144.426154 289.740676,142.39614 288.340523,140.995407 L254.96342,107.617409 Z M207.303853,56.6410394 C207.303853,55.2017906 207.243248,53.7659403 207.135065,52.3346212 L273.684232,72.8754941 L245.422331,101.137107 L199.244479,85.7460375 C204.473529,77.0057587 207.303853,66.9202553 207.303853,56.6410394 Z M107.801821,41.8985097 C114.08948,23.6136493 131.314417,11.3282079 150.663372,11.3282079 C171.507636,11.3282079 189.586144,25.4272954 194.626581,45.6141619 C195.522067,49.2012389 195.975757,52.911227 195.975757,56.6410394 C195.975757,67.1615461 192.484438,77.0221846 185.877892,85.1609356 C177.224926,95.8332402 164.389626,101.953871 150.663372,101.953871 C135.825832,101.953871 121.908699,94.6709661 113.431884,82.4670878 C108.145628,74.87379 105.350987,65.9426309 105.350987,56.6410394 C105.350987,51.5824282 106.175106,46.6223724 107.801821,41.8985097 Z M16.2923261,72.8534041 L94.6261118,48.4275223 C94.2330269,51.1338312 94.0228907,53.8752575 94.0228907,56.640473 C94.0228907,65.7602468 96.1831586,74.5934169 100.300922,82.5633775 L44.5763169,101.137107 L16.2923261,72.8534041 Z M27.6561059,144.278888 L45.5658261,114.427927 L136.509482,144.742778 L118.600328,174.593738 C108.889318,171.356703 38.0247124,147.734557 27.6561059,144.278888 Z M139.335276,276.164716 L60.0386019,246.42817 L60.0386019,167.014034 C122.428092,187.700475 119.381401,187.068927 121.118564,187.068927 C123.065864,187.068927 124.930469,186.061283 125.976618,184.318438 L139.335276,162.052279 L139.335276,276.164716 Z M144.999324,135.632067 L60.9584433,107.618541 L106.720554,92.3651094 C117.431269,105.532452 133.555115,113.282079 150.663372,113.282079 C166.489855,113.282079 181.364212,106.768926 192.063033,95.2934511 L229.040205,107.617975 L144.999324,135.632067 Z M241.288142,246.270708 L150.663372,276.479074 L150.663372,157.748127 L170.742989,182.845771 C172.203747,184.671312 174.635323,185.411044 176.864126,184.710961 L241.288142,164.465754 L241.288142,246.270708 L241.288142,246.270708 Z M177.166586,172.742143 L154.4968,144.406896 L245.422331,114.098276 L273.722181,142.398405 L177.166586,172.742143 Z" id="Shape"></path>
                <path d="M124.312242,222.068288 L111.677566,217.360646 C108.73989,216.266712 105.465328,217.745047 104.363202,220.663898 C103.261645,223.583313 104.750082,226.836892 107.687758,227.93139 L120.322434,232.639032 C123.266359,233.735224 126.536945,232.249551 127.636798,229.33578 C128.738355,226.41693 127.249918,223.162786 124.312242,222.068288 Z" id="Path"></path>
                <path d="M124.348639,246.064968 L90.601409,233.360975 C87.6929603,232.266173 84.4509764,233.745482 83.359816,236.665142 C82.2686555,239.584802 83.742847,242.839847 86.6512958,243.934649 L120.398525,256.638642 C121.049285,256.883688 121.716355,257 122.372738,257 C124.650114,257 126.793063,255.601432 127.640118,253.334475 C128.731279,250.41425 127.25765,247.159769 124.348639,246.064968 Z" id="Path"></path>
                <path d="M183.330644,35.6476148 C181.104836,33.4505138 177.495663,33.4510763 175.269285,35.6476148 L145.100321,65.4204142 L137.730929,58.1479312 C135.505121,55.9513927 131.895948,55.9513927 129.66957,58.1479312 C127.443192,60.3444697 127.443762,63.9061807 129.66957,66.1032817 L141.069926,77.3525961 C143.295734,79.5491346 146.904907,79.5491346 149.131285,77.3525961 L183.330644,43.6029653 C185.556452,41.4064268 185.556452,37.8447158 183.330644,35.6476148 Z" id="Path"></path>
            </g>
        </g>
    </g>
</svg>