<?xml version="1.0" encoding="UTF-8"?>
<svg width="18px" height="14px" viewBox="0 0 18 14" version="1.1" xmlns="http://www.w3.org/2000/svg" xmlns:xlink="http://www.w3.org/1999/xlink">
    <title>msg</title>
    <g id="Page-1" stroke="none" stroke-width="1" fill="none" fill-rule="evenodd">
        <g id="msg" transform="translate(1.000000, 1.000000)" fill="#282828" fill-rule="nonzero" stroke="#282828" stroke-width="0.5">
            <path d="M14.6666563,0 L1.33334375,0 C0.59796875,0 0,0.59796875 0,1.33334375 L0,10.6666875 C0,11.4020313 0.59796875,12 1.33334375,12 L14.6666875,12 C15.4020313,12 16,11.4020313 16,10.6666563 L16,1.33334375 C16,0.59796875 15.4020313,0 14.6666563,0 Z M1.33334375,0.66665625 L14.6666875,0.66665625 C14.7158125,0.66665625 14.7590937,0.6845625 14.8051875,0.6946875 C13.6508437,1.75115625 9.82321875,5.25278125 8.48375,6.459625 C8.3789375,6.55403125 8.21,6.66665625 8.00003125,6.66665625 C7.7900625,6.66665625 7.621125,6.55403125 7.51596875,6.4593125 C6.176625,5.25265625 2.34878125,1.75084375 1.194625,0.69475 C1.2408125,0.684625 1.2841875,0.66665625 1.33334375,0.66665625 Z M0.66665625,10.6666563 L0.66665625,1.33334375 C0.66665625,1.26803125 0.68634375,1.20878125 0.70396875,1.14909375 C1.58746875,1.95771875 4.25821875,4.40096875 5.98996875,5.97575 C4.26384375,7.45846875 1.59240625,9.99121875 0.701875,10.8404062 C0.68615625,10.7837188 0.66665625,10.7282813 0.66665625,10.6666563 Z M14.6666562,11.3333438 L1.33334375,11.3333438 C1.28009375,11.3333438 1.23275,11.3147812 1.18303125,11.3029062 C2.10325,10.4256562 4.7916875,7.87834375 6.48746875,6.427625 C6.70853125,6.62815625 6.91046875,6.811 7.06965625,6.9544375 C7.34440625,7.2025 7.666,7.33334375 8,7.33334375 C8.334,7.33334375 8.65559375,7.20246875 8.93,6.95475 C9.08925,6.81125 9.29134375,6.62825 9.51253125,6.427625 C11.2084062,7.8781875 13.8964688,10.4253125 14.8169688,11.3029062 C14.76725,11.3147812 14.7199687,11.3333438 14.6666562,11.3333438 Z M15.3333437,10.6666562 C15.3333437,10.72825 15.3138437,10.7837187 15.2981562,10.8404063 C14.4072812,9.99078125 11.7361563,7.4583125 10.0100625,5.97578125 C11.741875,4.401 14.4122187,1.95796875 15.2960312,1.14903125 C15.3136562,1.20871875 15.3333437,1.268 15.3333437,1.3333125 L15.3333437,10.6666562 L15.3333437,10.6666562 Z" id="Shape"></path>
        </g>
    </g>
</svg>