<?xml version="1.0"?>
<svg xmlns="http://www.w3.org/2000/svg" xmlns:xlink="http://www.w3.org/1999/xlink" xmlns:svgjs="http://svgjs.com/svgjs" version="1.1" width="512" height="512" x="0" y="0" viewBox="0 0 503.89 503.89" style="enable-background:new 0 0 512 512" xml:space="preserve" class=""><g>
<g xmlns="http://www.w3.org/2000/svg">
	<path style="" d="M382.047,75.291c23.262,3.747,45.994,18.069,62.368,39.295   c12.222,15.844,19.911,34.087,22.157,51.925l-11.958-10.643c-7.225-6.431-17.198,4.773-9.973,11.204l23.734,21.125   c2.769,3.942,8.802,4.222,11.995,0.636l21.594-24.259c6.431-7.225-4.771-17.197-11.205-9.974l-9.269,10.414   c-2.533-20.606-11.277-41.545-25.198-59.591c-18.68-24.214-44.871-40.595-71.86-44.942   C374.882,58.94,372.498,73.753,382.047,75.291z" fill="#857e87" data-original="#857e87" class=""/>
	<g>
		<g>
			<path style="" d="M331.439,6.443H15.82C7.083,6.443,0,13.526,0,22.263v210.656c0,8.737,7.083,15.82,15.82,15.82     h26.018v63.803c0,4.761,5.756,7.145,9.122,3.778l67.581-67.582h212.897c8.737,0,15.82-7.083,15.82-15.82V22.263     C347.26,13.526,340.177,6.443,331.439,6.443z" fill="#c3ddff" data-original="#c3ddff" class=""/>
			<g>
				<path style="" d="M41.839,285.443v27.1c0,4.76,5.756,7.145,9.122,3.778l67.581-67.582h-40L41.839,285.443z" fill="#0070e0" data-original="#a4ccff" class=""/>
				<path style="" d="M331.439,6.443h-40c8.737,0,15.82,7.083,15.82,15.82v210.656c0,8.737-7.083,15.82-15.82,15.82h40      c8.737,0,15.82-7.083,15.82-15.82V22.263C347.26,13.526,340.177,6.443,331.439,6.443z" fill="#0070e0" data-original="#a4ccff" class=""/>
			</g>
			<path style="" d="M496.724,337.781c0-70.805-81.068-128.202-181.07-128.202s-181.069,57.397-181.069,128.202     s81.067,128.203,181.069,128.203c28.809,0,56.039-4.772,80.22-13.247l38.389,38.389c4.443,4.443,12.041,1.296,12.041-4.987     v-59.599C477.527,403.504,496.724,372.231,496.724,337.781z" fill="#ffbb56" data-original="#ffeaa8" class=""/>
			<path style="" d="M402.434,225.239c-25.553-9.981-54.884-15.66-86.077-15.66c-0.118,0-0.235,0.003-0.353,0.003     c-0.117,0-0.233-0.003-0.351-0.003c-6.761,0-13.431,0.271-20,0.782c0.146,0.011,0.29,0.026,0.436,0.038     c-5.152,0.414-10.242,0.974-15.253,1.692c97.242,1.502,175.425,58.154,175.425,127.827c0,61.948-61.808,113.602-143.864,125.351     c1.317,0.02,2.636,0.036,3.96,0.036c27.943,0,54.393-4.556,77.97-12.679l39.935,38.5c4.443,4.443,12.041,1.296,12.041-4.987     v-59.599c31.225-23.035,50.421-54.308,50.421-88.758C496.724,289.24,458.618,247.003,402.434,225.239z" fill="#f68b1e" data-original="#ffe07d" class=""/>
			<g>
				<g>
					<g>
						<path style="" d="M405.515,368.305h-123c-9.673,0-9.673-15,0-15h123        C415.188,353.305,415.188,368.305,405.515,368.305z" fill="#f68b1e" data-original="#ffd064" class=""/>
					</g>
				</g>
				<g>
					<g>
						<g>
							<path style="" d="M349.515,325.305h-124c-9.673,0-9.673-15,0-15h124         C359.188,310.305,359.188,325.305,349.515,325.305z" fill="#f68b1e" data-original="#ffd064" class=""/>
						</g>
						<g>
							<path style="" d="M405.515,325.305h-25c-9.673,0-9.673-15,0-15h25         C415.188,310.305,415.188,325.305,405.515,325.305z" fill="#f68b1e" data-original="#ffd064" class=""/>
						</g>
					</g>
				</g>
			</g>
			<g>
				<g>
					<g>
						<path style="" d="M207.362,159.305h-124c-9.673,0-9.673-15,0-15h124        C217.035,144.305,217.035,159.305,207.362,159.305z" fill="#0070e0" data-original="#739ad6" class=""/>
					</g>
				</g>
				<g>
					<g>
						<path style="" d="M263.362,116.305h-124c-9.673,0-9.673-15,0-15h124        C273.035,101.305,273.035,116.305,263.362,116.305z" fill="#0070e0" data-original="#739ad6" class=""/>
					</g>
					<g>
						<path style="" d="M108.362,116.305h-25c-9.673,0-9.673-15,0-15h25        C118.035,101.305,118.035,116.305,108.362,116.305z" fill="#0070e0" data-original="#739ad6" class=""/>
					</g>
				</g>
			</g>
		</g>
		<path style="" d="M135.693,482.541c-43.379-6.987-79.127-48.339-84.525-91.219l11.957,10.642    c7.226,6.43,17.198-4.773,9.973-11.204c-3.534-3.146-19.113-17.012-23.369-20.8c-3.573-3.18-8.445-5.357-12.36-0.961    l-21.594,24.259c-2.781,3.124-2.305,8.086,0.835,10.778c4.377,3.754,9.411,0.273,12.56-3.265c2.36-2.652,4.72-5.303,7.08-7.955    c4.849,39.454,30.627,74.714,65.173,93.659c10.13,5.555,21.273,10.971,33.086,10.971    C143.465,497.447,144.534,483.965,135.693,482.541z" fill="#857e87" data-original="#857e87" class=""/>
	</g>
</g>















</g></svg>
