<?xml version="1.0" encoding="UTF-8"?>
<svg width="207px" height="246px" viewBox="0 0 207 246" version="1.1" xmlns="http://www.w3.org/2000/svg" xmlns:xlink="http://www.w3.org/1999/xlink">
    <title>quality</title>
    <g id="Style-Guide" stroke="none" stroke-width="1" fill="none" fill-rule="evenodd">
        <g id="Introduction" transform="translate(-158.000000, -742.000000)" fill="#F68B1F" fill-rule="nonzero">
            <g id="quality" transform="translate(158.000000, 742.000000)">
                <path d="M206.734303,63.3403377 C206.607835,56.69869 206.487116,50.4244282 206.487116,44.3545248 C206.487116,39.599174 202.627536,35.7439185 197.864285,35.7439185 C160.98731,35.7439185 132.910222,25.1609093 109.506708,2.4380932 C106.15875,-0.813271749 100.830991,-0.812123668 97.4841823,2.4380932 C74.0829682,25.1609093 46.0104791,35.7439185 9.13580386,35.7439185 C4.37370163,35.7439185 0.512972689,39.599174 0.512972689,44.3545248 C0.512972689,50.4255763 0.393402764,56.7021343 0.265784862,63.3449301 C-0.916117863,125.15301 -2.5349107,209.802159 100.671181,245.524695 C101.586351,245.841565 102.54061,246 103.49487,246 C104.44913,246 105.40454,245.841565 106.31856,245.524695 C209.5327,209.801011 207.916206,125.149566 206.734303,63.3403377 Z M103.49602,228.251818 C14.9832331,196.143441 16.3214965,125.806268 17.5091478,63.6732812 C17.5804298,59.9443146 17.6494125,56.3301561 17.6977004,52.7871786 C52.2350135,51.3314121 79.8533668,40.8804322 103.49602,20.3137119 C127.140973,40.8804322 154.763925,51.3325602 189.303538,52.7871786 C189.351826,56.329008 189.420808,59.9408704 189.49209,63.6675408 C190.678592,125.802824 192.015706,196.142293 103.49602,228.251818 Z" id="Shape"></path>
                <path d="M133.250313,93.5266929 L91.5460582,135.169812 L73.7498313,117.398691 C70.37538,114.030151 64.9041376,114.030151 61.5308384,117.398691 C58.1563872,120.769532 58.1563872,126.231906 61.5308384,129.601597 L85.4365618,153.473595 C87.1232114,155.157865 89.3352109,156 91.5460582,156 C93.7569056,156 95.9689051,155.157865 97.6555547,153.473595 L145.468153,105.729598 C148.843757,102.359907 148.843757,96.8963836 145.469306,93.5278434 C142.096006,90.1581526 136.624764,90.1570022 133.250313,93.5266929 Z" id="Path"></path>
            </g>
        </g>
    </g>
</svg>