<svg height="427pt" viewBox="-2 0 427 427.53365" width="427pt" xmlns="http://www.w3.org/2000/svg"><path d="m212.152344 427.535156c-1.425782 0-2.859375-.449218-4.0625-1.34375l-205.0625-152c-1.773438-1.3125-2.796875-3.40625-2.757813-5.613281.035157-2.207031 1.144531-4.261719 2.964844-5.503906l24.132813-16.535157c3.117187-2.128906 7.359374-1.328124 9.492187 1.773438 2.125 3.113281 1.335937 7.359375-1.777344 9.492188l-16.230469 11.121093 193.300782 143.28125 193.464844-143.398437-15.988282-11.421875c-3.0625-2.195313-3.777344-6.457031-1.585937-9.519531 2.191406-3.066407 6.460937-3.78125 9.519531-1.589844l23.621094 16.875c1.777344 1.265625 2.839844 3.3125 2.859375 5.492187.019531 2.1875-1.007813 4.246094-2.761719 5.546875l-205.066406 151.996094c-1.199219.898438-2.632813 1.347656-4.0625 1.347656zm0 0"/><path d="m212.152344 393.121094c-1.425782 0-2.859375-.449219-4.0625-1.34375l-205.0625-152.003906c-1.773438-1.320313-2.796875-3.40625-2.757813-5.617188.035157-2.207031 1.144531-4.257812 2.964844-5.503906l22.359375-15.3125c3.128906-2.125 7.359375-1.328125 9.492188 1.773437 2.128906 3.113281 1.335937 7.359375-1.773438 9.496094l-14.460938 9.898437 193.300782 143.285157 193.46875-143.40625-13.757813-9.828125c-3.066406-2.1875-3.78125-6.453125-1.589843-9.519532 2.191406-3.0625 6.464843-3.777343 9.523437-1.585937l21.394531 15.28125c1.777344 1.265625 2.839844 3.308594 2.859375 5.492187.019531 2.179688-1.007812 4.246094-2.761719 5.546876l-205.066406 152.003906c-1.207031.894531-2.640625 1.34375-4.070312 1.34375zm0 0"/><path d="m342.8125 153.550781c-1.371094 0-2.761719-.410156-3.960938-1.273437l-68.53125-48.945313c-3.066406-2.1875-3.777343-6.453125-1.585937-9.519531s6.460937-3.777344 9.519531-1.585938l68.53125 48.945313c3.066406 2.1875 3.78125 6.453125 1.589844 9.519531-1.332031 1.867188-3.429688 2.859375-5.5625 2.859375zm0 0"/><path d="m142.339844 306.953125c-1.410156 0-2.832032-.433594-4.058594-1.339844l-67.304688-49.886719c-3.027343-2.246093-3.660156-6.519531-1.421874-9.554687 2.253906-3.027344 6.519531-3.65625 9.554687-1.417969l67.308594 49.886719c3.027343 2.246094 3.65625 6.519531 1.417969 9.550781-1.339844 1.808594-3.410157 2.761719-5.496094 2.761719zm0 0"/><path d="m171.773438 183.046875c-.605469 0-1.21875-.078125-1.820313-.246094l-92.710937-25.640625c-2.558594-.707031-4.476563-2.832031-4.910157-5.453125-.4375-2.621093.683594-5.261719 2.871094-6.761719l137.402344-94.105468c2.371093-1.621094 5.492187-1.585938 7.824219.082031l57.828124 41.304687c1.761719 1.261719 2.824219 3.273438 2.859376 5.441407.035156 2.167969-.960938 4.21875-2.679688 5.535156l-102.511719 78.4375c-1.207031.917969-2.671875 1.40625-4.152343 1.40625zm-76.738282-35.132813 75.289063 20.820313 92.488281-70.765625-46.429688-33.160156zm0 0"/><path d="m75.039062 257.070312c-1.425781 0-2.859374-.449218-4.0625-1.34375l-67.949218-50.367187c-1.773438-1.320313-2.796875-3.40625-2.757813-5.613281.035157-2.210938 1.144531-4.261719 2.964844-5.507813l71.964844-49.292969c3.121093-2.132812 7.359375-1.320312 9.492187 1.777344 2.128906 3.113282 1.335938 7.359375-1.773437 9.492188l-64.066407 43.878906 56.125 41.601562 92.652344-70.894531c2.988282-2.289062 7.289063-1.722656 9.570313 1.273438 2.292969 2.992187 1.71875 7.28125-1.273438 9.566406l-96.734375 74.019531c-1.222656.941406-2.691406 1.410156-4.152344 1.410156zm0 0"/><path d="m212.152344 358.699219c-1.425782 0-2.859375-.445313-4.0625-1.339844l-69.808594-51.746094c-1.71875-1.28125-2.746094-3.292969-2.761719-5.433593-.011719-2.148438.972657-4.175782 2.679688-5.476563l97.210937-74.378906c1.886719-1.449219 4.398438-1.8125 6.617188-.9375 2.21875.859375 3.828125 2.816406 4.246094 5.160156l16.652343 93.472656c.457031 2.554688-.570312 5.140625-2.652343 6.6875l-44.050782 32.652344c-1.207031.894531-2.640625 1.339844-4.070312 1.339844zm-58.457032-58.660157 58.457032 43.332032 36.597656-27.117188-13.949219-78.277344zm0 0"/><path d="m256.214844 326.046875c-2.09375 0-4.15625-.949219-5.492188-2.761719-2.242187-3.03125-1.609375-7.304687 1.417969-9.550781l153.480469-113.761719-62.65625-44.757812-99.261719 75.953125c-2.980469 2.292969-7.28125 1.726562-9.566406-1.273438-2.292969-2.992187-1.722657-7.28125 1.273437-9.566406l103.265625-79.019531c2.371094-1.824219 5.671875-1.886719 8.113281-.132813l74.402344 53.144531c1.777344 1.265626 2.839844 3.308594 2.859375 5.492188s-1.007812 4.246094-2.761719 5.546875l-161.015624 119.347656c-1.226563.90625-2.648438 1.339844-4.058594 1.339844zm0 0"/><path d="m176.675781 50.894531c-1.746093 0-3.492187-.667969-4.828125-2l-21.617187-21.621093c-2.667969-2.667969-2.667969-6.988282 0-9.652344 2.664062-2.667969 6.984375-2.667969 9.652343 0l21.621094 21.617187c2.664063 2.667969 2.664063 6.988281 0 9.65625-1.335937 1.332031-3.082031 2-4.828125 2zm0 0"/><path d="m256.242188 50.894531c-1.75 0-3.492188-.667969-4.828126-2-2.664062-2.667969-2.664062-6.988281 0-9.65625l21.621094-21.617187c2.664063-2.667969 6.984375-2.667969 9.652344 0 2.664062 2.664062 2.664062 6.984375 0 9.652344l-21.621094 21.621093c-1.332031 1.332031-3.078125 2-4.824218 2zm0 0"/><path d="m210.574219 40.960938c-3.773438 0-6.828125-3.054688-6.828125-6.828126v-27.304687c0-3.773437 3.054687-6.828125 6.828125-6.828125 3.769531 0 6.824219 3.054688 6.824219 6.828125v27.304687c0 3.777344-3.050782 6.828126-6.824219 6.828126zm0 0"/></svg>