<?xml version="1.0" encoding="UTF-8"?>
<svg width="16px" height="14px" viewBox="0 0 16 14" version="1.1" xmlns="http://www.w3.org/2000/svg" xmlns:xlink="http://www.w3.org/1999/xlink">
    <title>upload, arrow, send, uploading, interface</title>
    <g id="Website" stroke="none" stroke-width="1" fill="none" fill-rule="evenodd">
        <g id="User-Account" transform="translate(-675.000000, -598.000000)" fill="#282828">
            <g id="upload,-arrow,-send,-uploading,-interface" transform="translate(675.000000, 598.000000)">
                <path d="M15,8 C14.4477153,8 14,8.44771525 14,9 L14,12 L2,12 L2,9 C2,8.44771525 1.55228475,8 1,8 C0.44771525,8 0,8.44771525 0,9 L0,13 C0,13.5522847 0.44771525,14 1,14 L15,14 C15.5522847,14 16,13.5522847 16,13 L16,9 C16,8.44771525 15.5522847,8 15,8 Z" id="Path"></path>
                <path d="M5.707,4.707 L7,3.4141 L7,9 C7,9.55228475 7.44771525,10 8,10 C8.55228475,10 9,9.55228475 9,9 L9,3.4141 L10.293,4.707 C10.6853789,5.08597221 11.3090848,5.08055237 11.6948186,4.69481858 C12.0805524,4.30908478 12.0859722,3.68537889 11.707,3.293 L8.707,0.293 C8.51955039,0.10538185 8.26521298,-3.51084602e-05 8,-3.51084602e-05 C7.73478702,-3.51084602e-05 7.48044961,0.10538185 7.293,0.293 L4.293,3.293 C3.91402779,3.68537889 3.91944763,4.30908478 4.30518142,4.69481858 C4.69091522,5.08055237 5.31462111,5.08597221 5.707,4.707 Z" id="Path"></path>
            </g>
        </g>
    </g>
</svg>