<?xml version="1.0" encoding="UTF-8"?>
<svg width="478px" height="512px" viewBox="0 0 478 512" version="1.1" xmlns="http://www.w3.org/2000/svg" xmlns:xlink="http://www.w3.org/1999/xlink">
    <title>user</title>
    <g id="Page-1" stroke="none" stroke-width="1" fill="none" fill-rule="evenodd">
        <g id="Desktop-HD" transform="translate(-217.000000, -207.000000)" fill="#FFFFFF" fill-rule="nonzero">
            <g id="user" transform="translate(217.000000, 207.000000)">
                <path d="M239,288.389 C85.163,288.389 0.44,361.165 0.44,493.314 C0.44,503.635 8.805,512 19.126,512 L458.873,512 C469.194,512 477.559,503.635 477.559,493.314 C477.559,361.172 392.837,288.389 239,288.389 Z M48.0035,471.195 C55.0048441,376.946132 119.172401,329.195 239.000166,329.195 C358.827932,329.195 422.996441,376.946132 430.0035,471.195 L48.0035,471.195 L48.0035,471.195 Z" id="Shape"></path>
                <path d="M239,0 C168.335,0 115.049,54.358 115.049,126.437 C115.049,200.627 170.653,260.977 239,260.977 C307.347,260.977 362.951,200.627 362.951,126.443 C362.951,54.358 309.665,0 239,0 Z M239,219.4915 C193.230599,219.4915 156,177.830827 156,126.622101 C156,77.2943125 190.907761,41.4915 239,41.4915 C286.322434,41.4915 322,78.0856827 322,126.622101 C322,177.830827 284.769401,219.4915 239,219.4915 Z" id="Shape"></path>
            </g>
        </g>
    </g>
</svg>