<?xml version="1.0" encoding="UTF-8"?>
<svg width="9px" height="9px" viewBox="0 0 9 9" version="1.1" xmlns="http://www.w3.org/2000/svg" xmlns:xlink="http://www.w3.org/1999/xlink">
    <title>correct</title>
    <g id="Website" stroke="none" stroke-width="1" fill="none" fill-rule="evenodd">
        <g id="Shop-Page" transform="translate(-460.000000, -446.000000)" fill-rule="nonzero">
            <g id="Products" transform="translate(450.000000, 249.000000)">
                <g id="Product-1" transform="translate(0.000000, 1.000000)">
                    <g id="correct" transform="translate(10.000000, 196.000000)">
                        <path d="M4.5,0 C2.01860047,0 0,2.01860047 0,4.5 C0,6.98139953 2.01860047,9 4.5,9 C6.98139953,9 9,6.98139953 9,4.5 C9,2.01860047 6.98139953,0 4.5,0 Z" id="Path" fill="#0070E0"></path>
                        <path d="M6.90019206,3.60254614 L4.68749439,5.89653834 C4.62111159,5.965362 4.53397249,6 4.44683337,6 C4.35969425,6 4.27255515,5.965362 4.20617235,5.89653834 L2.71347017,4.39759468 C2.58033058,4.25962429 2.58033058,4.0365452 2.71347017,3.89857481 C2.84654741,3.76053978 3.06165262,3.76053978 3.19479221,3.89857481 L4.44683337,5.14800853 L6.41887002,3.10352627 C6.55194726,2.96549124 6.76705247,2.96549124 6.90019206,3.10352627 C7.03326931,3.24149666 7.03326931,3.46451112 6.90019206,3.60254614 Z" id="Path" fill="#FAFAFA"></path>
                    </g>
                </g>
            </g>
        </g>
    </g>
</svg>