<?xml version="1.0" encoding="UTF-8"?>
<svg width="547px" height="547px" viewBox="0 0 547 547" version="1.1" xmlns="http://www.w3.org/2000/svg" xmlns:xlink="http://www.w3.org/1999/xlink">
    <title>axa_icon</title>
    <g id="Page-1" stroke="none" stroke-width="1" fill="none" fill-rule="evenodd">
        <g id="axa_icon" fill-rule="nonzero">
            <path d="M547,547 L0,547 L0,491 L12,491 L24,490 L27,485 L41,466 L77,419 L88,405 L169,405 L173,419 L177,435 L178,437 L171,445 C160.092483,461.117665 147.705508,476.182905 134,490 L153,491 L172,491 L175,485 C178.953174,477.308412 184.006284,470.234058 190,464 C193.240931,472.396464 195.587242,481.111336 197,490 L217,491 L236,491 L237,490 C239.478787,485.746577 241.813447,481.41078 244,477 L255,465 C258.00209,473.404492 260.01564,482.129878 261,491 C277.671444,490.978428 294.341026,490.645037 311,490 L308,485 C302,474 303,475 291,439 L286,422 L292,413 L299,405 L380,405 L386,424 C391.954781,445.924781 397.621934,467.926671 403,490 L429,491 C437.347093,490.118203 445.681264,489.118102 454,488 L443,462 C423.651522,404.039483 406.637822,345.325536 392,286 L351,286 L349,289 L340,305 L276,390 L270,369 C292.01872,341.080839 314.353491,313.412392 337,286 L296,286 L295,287 L295,289 C294,294 293,297 289,302 L257,342 L255,337 C251.084141,320.646175 247.084088,304.312625 243,288 L243,286 L193,286 L194,289 C205.032594,317.971108 215.038827,347.322726 224,377 L211,394 C200.832744,360.81388 191.164985,327.476779 182,294 L181,287 L181,286 L138,286 L134,295 L127,308 C105.038597,339.432046 82.0255719,370.11608 58,400 C39.3987707,424.642089 20.3962355,448.978669 1,473 L0,473 L0,0 L515,0 L347,218 C333.803362,235.521124 320.802553,253.188889 308,271 L339,271 L384,213 L416,171 L547,0 L547,547 Z M225,438 L221,424 L234,407 L236,410 L243,430 L244,432 L242,435 L230,451 L225,438 Z M108,379 C117.931098,366.279089 127.931246,353.612235 138,341 C141.269255,336.512019 144.274344,331.837437 147,327 L147,331 L148,338 C151.238099,351.878227 155.244264,365.56596 160,379 C142.670704,379.529075 125.329296,379.529075 108,379 L108,379 Z M319,379 C336,358 350,340 355,331 L357,327 L358,332 L358,339 C361.464836,352.488064 365.468039,365.832073 370,379 L371,379 L318,379 L319,379 L319,379 Z" id="Shape" fill="#103083"></path>
            <polygon id="Path" fill="#FC1721" points="340 274 299 273 514 0 547 0"></polygon>
        </g>
    </g>
</svg>