<?xml version="1.0" encoding="UTF-8"?>
<svg width="114px" height="22px" viewBox="0 0 114 22" version="1.1" xmlns="http://www.w3.org/2000/svg" xmlns:xlink="http://www.w3.org/1999/xlink">
    <title>Flutterwave Logo</title>
    <g id="Symbols" stroke="none" stroke-width="1" fill="none" fill-rule="evenodd">
        <g id="Footer" transform="translate(-140.000000, -374.000000)" fill="#FFFFFF" fill-rule="nonzero">
            <g id="Partners">
                <g transform="translate(140.000000, 374.000000)">
                    <g id="Flutterwave-Logo">
                        <path d="M14.1580899,9.76986632 C16.8367554,7.56078404 22.3072694,-0.399529696 13.7430854,1.00971245 C10.0080448,1.58102683 4.53753087,5.23743888 3.44342808,9.46516531 C2.87751284,8.32253655 2.23614224,7.25608303 1.55704395,6.18962952 C0.500668837,4.74229975 -0.668889322,5.88492851 0.462941155,7.33225828 C3.8180762,11.4331614 5.75250166,16.5293781 5.97118281,21.8436436 C6.23527659,19.2917727 5.82027208,16.1685874 4.80162465,13.1215774 C5.29208452,13.2739279 5.85799976,13.3501031 6.34845963,13.3501031 C8.08393303,16.2447627 10.7625985,18.7204583 13.7430854,19.8630871 C16.4972062,20.9676282 20.1567915,20.3201386 18.6476841,15.8638864 C17.8554028,13.4262784 16.0067464,11.2933713 14.1580899,9.76986632 Z M14.8024704,2.32514427 C19.620542,1.79737548 14.4583224,7.71592549 12.7758212,8.80916084 C11.208036,7.79132103 9.21962549,6.88657454 7.30769231,7.15045893 C8.6842842,5.37866371 12.0492866,2.66442421 14.8024704,2.32514427 Z M6.99845097,8.09614197 C8.34590072,7.98984878 9.81224309,8.66303895 10.9615385,9.37166017 C9.85187396,9.86769503 8.66294772,10.1511435 7.4343906,10.2574367 C5.61137035,10.2574367 5.2150616,8.23786621 6.99845097,8.09614197 Z M13.7808053,17.3371505 C11.5950099,16.7053096 9.5203567,14.9212883 8.03846154,13.137267 C9.26102505,12.8770973 10.4835886,12.3939248 11.5950099,11.7249168 C12.0025311,11.5390813 12.4100523,11.2417444 12.7805261,10.9815746 C14.0771843,12.1709222 15.4479374,13.7691079 15.9666007,15.5902963 C16.485264,17.5601532 15.0774636,17.7088216 13.7808053,17.3371505 Z" id="Shape"></path>
                        <path d="M33.0402551,5.58805945 L26.4591471,5.58805945 C26.2295735,5.58805945 26.0382623,5.78069643 26.0382623,6.01186082 L26,6.01186082 L26,16.4142581 C26,16.6454225 26.1913113,16.8380594 26.4208848,16.8380594 C26.6121961,16.8380594 26.8035074,16.6454225 26.8417696,16.4142581 L26.8417696,11.7139156 L32.428059,11.7139156 C32.6576325,11.7139156 32.7724193,11.5212786 32.7724193,11.3286416 C32.7724193,11.0974773 32.6193703,10.9818951 32.428059,10.9818951 L26.8035074,10.9818951 L26.8035074,6.39713479 L33.0402551,6.39713479 C33.2698286,6.39713479 33.3846154,6.2044978 33.3846154,6.01186082 C33.3846154,5.89627862 33.2698286,5.74216904 33.0402551,5.58805945 Z M35.9692308,4.83805945 L35.9282051,4.83805945 C35.7230769,4.83805945 35.6,4.99595418 35.6,5.1933226 L35.6,16.4433226 C35.6,16.6801647 35.7641026,16.8380594 35.9692308,16.8380594 C36.2153846,16.8380594 36.3384615,16.640691 36.3384615,16.4433226 L36.3384615,5.27226997 C36.3384615,4.99595418 36.2153846,4.83805945 35.9692308,4.83805945 Z M45.8991352,8.96642723 C45.8991352,8.73940656 45.7418298,8.58805945 45.545198,8.58805945 C45.3092399,8.58805945 45.1912608,8.77724334 45.1912608,8.96642723 L45.1912608,13.4690039 C45.1912608,14.982475 43.9721438,16.193252 42.4777424,16.1554152 C40.9046882,16.1554152 40.0001821,15.0959854 40.0001821,13.4311671 L40.0001821,8.96642723 C40.0001821,8.73940656 39.8428766,8.58805945 39.6462449,8.58805945 C39.4889395,8.58805945 39.2923077,8.77724334 39.2923077,8.96642723 L39.2923077,13.5446774 C39.2923077,15.4365164 40.4720983,16.8364772 42.3990897,16.8364772 C43.5788803,16.874314 44.6800182,16.2310887 45.2305872,15.1716589 L45.2305872,16.3445991 C45.2305872,16.5716197 45.4272189,16.6851301 45.5845244,16.6851301 C45.8204825,16.6851301 45.9384615,16.4959462 45.9384615,16.3445991 L45.8991352,16.3445991 L45.8991352,8.96642723 Z M52.255054,9.04654001 C52.4015257,9.04654001 52.5846154,8.88752941 52.5846154,8.68876616 C52.5846154,8.52975556 52.4015257,8.33099231 52.255054,8.33099231 L49.9481246,8.33099231 L49.9481246,5.98558595 C49.9481246,5.7868227 49.765035,5.58805945 49.6185633,5.58805945 L49.5819453,5.58805945 C49.3988557,5.58805945 49.2890019,5.7868227 49.2890019,5.98558595 L49.2890019,8.33099231 L48.4834075,8.33099231 C48.3003179,8.33099231 48.1538462,8.45025026 48.1538462,8.64901351 C48.1538462,8.84777676 48.3003179,9.04654001 48.4834075,9.04654001 L49.2890019,9.04654001 L49.2890019,14.5324057 C49.2890019,16.0827591 50.2044501,16.8380594 51.26637,16.8380594 C51.6325493,16.8380594 51.9987285,16.7585541 52.3282899,16.6392962 C52.4381437,16.5597909 52.5479975,16.4405329 52.5479975,16.2815223 C52.5479975,16.0827591 52.4015257,15.9635011 52.255054,15.9635011 C51.9987285,16.0430064 51.7057851,16.0827591 51.4128417,16.0827591 C50.5340114,16.0827591 49.9481246,15.6454799 49.9481246,14.4529004 L49.9481246,9.04654001 L52.255054,9.04654001 Z M58.1627463,9.04654001 C58.345836,9.04654001 58.4923077,8.88752941 58.4923077,8.68876616 C58.4923077,8.52975556 58.345836,8.33099231 58.1627463,8.33099231 L55.8558169,8.33099231 L55.8558169,5.98558595 C55.8558169,5.7868227 55.7093452,5.58805945 55.5262556,5.58805945 L55.4896376,5.58805945 C55.306548,5.58805945 55.1966942,5.7868227 55.1966942,5.98558595 L55.1966942,8.33099231 L54.3910998,8.33099231 C54.2446281,8.33099231 54.0615385,8.45025026 54.0615385,8.64901351 C54.0615385,8.84777676 54.2446281,9.04654001 54.3910998,9.04654001 L55.1966942,9.04654001 L55.1966942,14.5324057 C55.1966942,16.0827591 56.1121424,16.8380594 57.2106802,16.8380594 C57.5402416,16.8380594 57.9064209,16.7585541 58.2359822,16.6392962 C58.3824539,16.5597909 58.4556898,16.4405329 58.4556898,16.2815223 C58.4556898,16.0827591 58.345836,15.9635011 58.1627463,15.9635011 C57.9064209,16.0430064 57.6134774,16.0827591 57.320534,16.0827591 C56.4417038,16.0827591 55.8558169,15.6454799 55.8558169,14.4529004 L55.8558169,9.04654001 L58.1627463,9.04654001 Z M63.6814969,8.58805945 C61.5659044,8.58805945 59.9692308,10.363384 59.9692308,12.6934975 L59.9692308,12.7304834 C59.9692308,15.2085406 61.7255717,16.8359214 63.8411642,16.8359214 C64.9588358,16.8729073 66.1164241,16.4290762 66.8748441,15.5783999 C66.9945946,15.504428 67.0345114,15.3934702 67.0345114,15.3194984 C67.0345114,15.1345687 66.8349272,14.9496391 66.6752599,14.9496391 L66.4357588,15.0236109 C65.795167,15.715611 64.8649052,16.1196533 63.8810811,16.1331888 C62.3243243,16.1331888 60.9272349,14.986625 60.7675676,13.0633567 L66.9945946,13.0633567 C67.154262,13.0633567 67.3538462,12.8784271 67.3538462,12.6934975 C67.3538462,10.363384 65.9168399,8.58805945 63.6814969,8.58805945 L63.6814969,8.58805945 Z M60.7076923,12.3380594 C60.8307692,10.6551326 62.1025641,9.33805945 63.7025641,9.33805945 C65.5487179,9.33805945 66.5333333,10.7648887 66.6153846,12.3380594 L60.7076923,12.3380594 Z M73.5897436,8.58805945 C72.1128205,8.70159156 70.8820513,9.64769247 70.3487179,11.0100778 L70.3487179,9.04218789 C70.3487179,8.89081174 70.1435897,8.70159156 69.9794872,8.70159156 C69.7333333,8.70159156 69.6102564,8.81512367 69.5692308,9.04218789 L69.5692308,16.4596191 C69.5692308,16.6488393 69.7333333,16.8380594 69.9384615,16.8380594 C70.1435897,16.8380594 70.3076923,16.6866833 70.3487179,16.4596191 L70.3487179,13.5077842 C70.3487179,10.8965457 71.8666667,9.64769247 73.5897436,9.45847229 L73.6307692,9.45847229 C73.8769231,9.45847229 74,9.23140807 74,9.04218789 C74,8.77727963 73.8358974,8.58805945 73.5897436,8.58805945 Z" id="Shape"></path>
                        <path d="M85.6673327,7.87736076 C85.1738262,7.87736076 84.7182817,8.27037386 84.6043956,8.8205922 L83.3136863,13.3009415 L82.0609391,8.8205922 C81.9470529,8.27037386 81.4535465,7.83805945 80.8841159,7.83805945 L80.7702298,7.83805945 C80.2007992,7.83805945 79.7072927,8.19177124 79.5934066,8.8205922 L78.3406593,13.2223389 L77.1258741,8.78129089 C76.974026,8.27037386 76.5564436,7.83805945 76.024975,7.83805945 L75.987013,7.83805945 C75.4175824,7.83805945 75,8.34897648 75,8.97779744 L75.0759241,9.56731709 L77.011988,15.7376228 C77.1638362,16.3664437 77.6573427,16.7987581 78.2647353,16.8380594 L78.3406593,16.8380594 C78.9100899,16.8380594 79.3656344,16.405745 79.5554446,15.7769241 L80.8081918,11.3751774 L82.0609391,15.7769241 C82.2127872,16.405745 82.7062937,16.8380594 83.2757243,16.8380594 L83.3896104,16.8380594 C83.997003,16.8380594 84.4905095,16.405745 84.6423576,15.7376228 L86.5784216,9.48871447 L86.6923077,9.01709875 L86.6923077,8.97779744 C86.6923077,8.34897648 86.2367632,7.87736076 85.6673327,7.87736076 Z M91.8252173,7.84308487 C90.9456179,7.8036441 90.1042621,8.00084794 89.2629062,8.27693332 C88.9187151,8.43469639 88.7274979,8.7896633 88.7274979,9.22351175 C88.7274979,9.81512326 89.1481758,10.2489717 89.6835841,10.2095309 C89.760071,10.2095309 89.8748014,10.2095309 89.9895317,10.1306494 C90.4866965,9.97288634 91.0221048,9.8940048 91.5575131,9.8940048 C92.7048166,9.8940048 93.2784683,10.4461755 93.2784683,11.5110763 L93.2784683,11.6293986 C92.6665731,11.392754 91.9781911,11.3138724 91.3280524,11.3138724 C89.4541234,11.3138724 88.1538462,12.2210101 88.1538462,14.1536077 C88.1538462,15.8495607 89.41588,16.8355799 90.869131,16.8355799 C91.7869738,16.8750207 92.6665731,16.4411723 93.2784683,15.7312384 C93.3167118,16.3622907 93.7756332,16.7961392 94.3492849,16.7961392 C94.9611801,16.7961392 95.4583449,16.2439684 95.4583449,15.5734754 L95.4583449,11.6293986 C95.4965884,10.6433794 95.1906408,9.61791942 94.5787456,8.86854484 C93.928607,8.23749255 93.0490076,7.84308487 91.8252173,7.84308487 Z M93.2692308,13.8882682 C93.2692308,14.8027925 92.5292113,15.3743702 91.530185,15.336265 C90.8271665,15.336265 90.3461538,14.9552132 90.3461538,14.3074252 L90.3461538,14.26932 C90.3461538,13.5453216 90.9381694,13.0880594 91.8631938,13.0880594 C92.3072055,13.0880594 92.8252191,13.2404802 93.2692308,13.4310061 L93.2692308,13.8882682 Z M103.088047,7.83805945 C102.615196,7.83805945 102.142345,8.15246993 102.024133,8.70268827 L100.211538,13.7725573 L98.4777526,8.74198958 C98.3201357,8.19177124 97.8866893,7.83805945 97.3350302,7.83805945 C96.7439668,7.83805945 96.2711161,8.30967517 96.1923077,8.97779744 C96.1923077,9.17430399 96.2711161,9.37081054 96.3499246,9.56731709 L98.8717949,15.7376228 C99.0294118,16.3664437 99.5416667,16.7987581 100.172134,16.8380594 L100.329751,16.8380594 C100.88141,16.7987581 101.433069,16.405745 101.669495,15.7769241 L104.112557,9.6066184 L104.230769,9.01709875 L104.230769,8.97779744 C104.230769,8.34897648 103.757919,7.83805945 103.088047,7.83805945 Z M109.038996,7.84046727 C106.624191,7.84046727 104.961538,9.87350347 104.961538,12.336605 L104.961538,12.7275735 C105.040712,15.1124813 107.020061,16.9500333 109.276518,16.8327427 C110.305779,16.8327427 111.295453,16.4808711 112.12678,15.7771278 C112.364302,15.5816435 112.443476,15.3470624 112.443476,15.0733845 L112.443476,15.0342876 C112.443476,14.4869317 112.047606,14.0568664 111.532975,14.0568664 C111.33504,14.0568664 111.137106,14.0959633 110.978758,14.2523507 C110.51738,14.6447463 109.924791,14.8537647 109.316105,14.8388034 C108.326431,14.8779002 107.455517,14.174157 107.336757,13.118542 L111.968432,13.118542 C112.562236,13.0794452 113.03728,12.5320893 112.997693,11.9065397 L112.997693,11.7110554 C112.997693,9.59982552 111.21628,7.76227358 109.038996,7.84046727 L109.038996,7.84046727 Z M107.153846,11.5880594 C107.361451,10.6625275 108.025787,10.0880594 109.02229,10.0880594 C110.018794,10.0880594 110.683129,10.6944424 110.807692,11.5880594 L107.153846,11.5880594 Z" id="Shape" stroke="#FFFFFF"></path>
                    </g>
                </g>
            </g>
        </g>
    </g>
</svg>