<?xml version="1.0" encoding="UTF-8"?>
<svg width="113px" height="20px" viewBox="0 0 113 20" version="1.1" xmlns="http://www.w3.org/2000/svg" xmlns:xlink="http://www.w3.org/1999/xlink">
    <title>AXA Mansard Logo</title>
    <g id="Symbols" stroke="none" stroke-width="1" fill="none" fill-rule="evenodd">
        <g id="Footer" transform="translate(-298.000000, -375.000000)" fill-rule="nonzero">
            <g id="Partners">
                <g transform="translate(140.000000, 374.000000)">
                    <g id="AXA-Mansard-Logo" transform="translate(158.000000, 1.000000)">
                        <path d="M20,20 L0,20 L0,17.952468 L0.438756856,17.952468 L0.877513711,17.9159049 L0.987202925,17.7330896 L1.49908592,17.0383912 L2.81535649,15.3199269 L3.21755027,14.8080439 L6.17915905,14.8080439 L6.32541133,15.3199269 L6.47166362,15.904936 L6.50822669,15.9780622 L6.25228519,16.2705667 C5.85347286,16.8598781 5.40056702,17.4107095 4.89945155,17.9159049 L5.59414991,17.952468 L6.28884826,17.952468 L6.39853748,17.7330896 C6.54307766,17.4518615 6.72783488,17.1932014 6.94698355,16.9652651 C7.06548192,17.2722656 7.15127028,17.5909081 7.20292505,17.9159049 L7.93418647,17.952468 L8.62888483,17.952468 L8.6654479,17.9159049 C8.75607995,17.7603867 8.84144229,17.6018567 8.9213894,17.440585 L9.32358318,17.0018282 C9.4333488,17.3091222 9.50697039,17.6281491 9.54296161,17.952468 C10.1525208,17.9516793 10.7620119,17.9394895 11.3711152,17.9159049 L11.261426,17.7330896 C11.0420475,17.3308958 11.0786106,17.3674589 10.6398537,16.0511883 L10.4570384,15.4296161 L10.6764168,15.1005484 L10.9323583,14.8080439 L13.8939671,14.8080439 L14.1133455,15.5027422 C14.3310706,16.3043796 14.5382791,17.1088362 14.7349177,17.9159049 L15.6855576,17.952468 C15.9907529,17.9202268 16.2954758,17.88366 16.5996344,17.8427788 L16.1974406,16.8921389 C15.4900008,14.7729244 14.8679277,12.6261622 14.3327239,10.4570384 L12.833638,10.4570384 L12.7605119,10.5667276 L12.4314442,11.1517367 L10.0914077,14.2595978 L9.87202925,13.4917733 C10.6771013,12.470963 11.4937291,11.4593196 12.321755,10.4570384 L10.8226691,10.4570384 L10.786106,10.4936015 L10.786106,10.5667276 C10.749543,10.749543 10.7129799,10.8592322 10.5667276,11.0420475 L9.39670932,12.5045704 L9.32358318,12.321755 C9.18040736,11.723809 9.03415314,11.1266042 8.88482633,10.5301645 L8.88482633,10.4570384 L7.05667276,10.4570384 L7.09323583,10.5667276 C7.49662134,11.6260003 7.86247997,12.6991856 8.19012797,13.7842779 L7.71480804,14.4058501 C7.34306193,13.1924636 6.98957896,11.9735568 6.65447898,10.749543 L6.6179159,10.4936015 L6.6179159,10.4570384 L5.04570384,10.4570384 L4.89945155,10.786106 L4.64351005,11.261426 C3.84053373,12.4106781 2.99910683,13.5325806 2.12065814,14.6252285 C1.44054006,15.526219 0.745749015,16.4160391 0.0365630713,17.2943327 L0,17.2943327 L0,0 L18.8299817,0 L12.6873857,7.97074954 C12.2048761,8.61137564 11.7295266,9.25736341 11.261426,9.90859232 L12.3948812,9.90859232 L14.0402194,7.78793419 L15.2102377,6.25228519 L20,0 L20,20 Z M8.22669104,16.0146252 L8.08043876,15.5027422 L8.55575868,14.88117 L8.62888483,14.9908592 L8.88482633,15.7221207 L8.9213894,15.7952468 L8.84826325,15.904936 L8.4095064,16.4899452 L8.22669104,16.0146252 Z M3.9488117,13.857404 C4.31192314,13.3922884 4.67755925,12.9291494 5.04570384,12.4680073 C5.16523786,12.303913 5.27511312,12.1329959 5.37477148,11.9561243 L5.37477148,12.1023766 L5.41133455,12.3583181 C5.52972939,12.8657487 5.67620711,13.3662142 5.85009141,13.857404 C5.21647912,13.8767486 4.58242399,13.8767486 3.9488117,13.857404 L3.9488117,13.857404 Z M11.6636197,13.857404 C12.285192,13.0895795 12.797075,12.4314442 12.9798903,12.1023766 L13.0530165,11.9561243 L13.0895795,12.1389397 L13.0895795,12.3948812 C13.2162646,12.8880462 13.362634,13.3759442 13.5283364,13.857404 L13.5648995,13.857404 L11.6270567,13.857404 L11.6636197,13.857404 L11.6636197,13.857404 Z" id="Shape" fill="#FFFFFF"></path>
                        <polygon id="Path" fill="#282828" points="12.4879032 10 11 9.96350365 18.8024194 0 20 0"></polygon>
                        <path d="M27,16.8529809 L29.9491956,8.10884813 L32.0973751,8.10884813 L35.0101609,16.8529809 L33.2988992,16.8529809 L32.6071126,14.7123011 L29.2209992,14.7123011 L28.5292125,16.8529809 L27,16.8529809 Z M30.9322608,9.45130834 L29.6215072,13.5149717 L32.2066046,13.5149717 L30.9322608,9.45130834 Z M35.3378493,16.8529809 L38.1778154,12.353925 L35.5563082,8.10884813 L37.3767993,8.10884813 L39.2701101,11.2291611 L41.127011,8.10884813 L42.8018628,8.10884813 L40.2167655,12.3176423 L43.0203218,16.8529809 L41.1634208,16.8529809 L39.088061,13.4424063 L37.0127011,16.8529809 L35.3378493,16.8529809 Z M43.38442,16.8529809 L46.3336156,8.10884813 L48.4817951,8.10884813 L51.358171,16.8529809 L49.6833192,16.8529809 L48.9551228,14.7123011 L45.6054191,14.7123011 L44.9136325,16.8529809 L43.38442,16.8529809 Z M47.280271,9.45130834 L46.0059272,13.5149717 L48.5910246,13.5149717 L47.280271,9.45130834 Z M54.9263336,16.8529809 L54.9263336,8.10884813 L57.1109229,8.10884813 L59.4411516,14.095495 L61.6985605,8.10884813 L63.8467401,8.10884813 L63.8467401,16.8529809 L62.2082981,16.8529809 L62.2082981,10.2495279 L59.5867909,16.8529809 L59.0770533,16.8529809 L56.3827265,10.2495279 L56.3827265,16.8529809 L54.9263336,16.8529809 Z M64.8298052,16.8529809 L67.7790008,8.10884813 L69.9271804,8.10884813 L72.8399661,16.8529809 L71.1287045,16.8529809 L70.4369179,14.7123011 L67.0508044,14.7123011 L66.3590178,16.8529809 L64.8298052,16.8529809 Z M68.762066,9.45130834 L67.4513124,13.5149717 L70.0364098,13.5149717 L68.762066,9.45130834 Z M73.8230313,16.8529809 L73.8230313,8.10884813 L75.7527519,8.10884813 L79.4665538,14.4220394 L79.4665538,8.10884813 L80.9593565,8.10884813 L80.9593565,16.8529809 L79.2845047,16.8529809 L75.315834,10.1406798 L75.315834,16.8529809 L73.8230313,16.8529809 Z M85.6198137,16.9981117 C84.4546994,16.9981117 83.6172735,16.7441327 83.0347163,16.2361748 C82.4480851,15.6900635 82.1068672,14.9315426 82.088061,14.1317777 L83.6536833,14.1317777 C83.726503,14.6760184 83.9085521,15.0751281 84.1634208,15.3291071 C84.4546994,15.6193688 84.9280271,15.7644996 85.6198137,15.7644996 C86.0931414,15.7644996 86.4936494,15.6556515 86.8213378,15.4016725 C87.1126164,15.1476936 87.2946655,14.8211492 87.2946655,14.4220394 C87.2946655,14.0229296 87.1490262,13.6963852 86.8941575,13.5149717 C86.6392887,13.3335581 86.165961,13.1884273 85.4377646,13.0795792 C84.3454699,12.9344483 83.5444539,12.6441867 83.0711262,12.2813596 C82.5977985,11.9185325 82.3429297,11.3017265 82.3429297,10.5035069 C82.3429297,9.77785271 82.6342083,9.19732938 83.1803556,8.72565417 C83.7629128,8.25397896 84.4911092,8 85.4013548,8 C86.3480102,8 87.1126164,8.21769625 87.6587638,8.65308875 C88.2049111,9.08848125 88.5325995,9.7052873 88.6054191,10.5397896 L87.1126164,10.5397896 C87.0397968,10.0681144 86.8577477,9.74157 86.5664691,9.56015646 C86.3116003,9.34246021 85.9110923,9.23361209 85.4013548,9.23361209 C84.9280271,9.23361209 84.5639289,9.34246021 84.2726503,9.56015646 C84.0177815,9.74157 83.9085521,10.0318317 83.9085521,10.358376 C83.9085521,10.7574858 84.0177815,11.0477475 84.2362405,11.2291611 C84.4911092,11.4105746 85.0008467,11.5557054 85.7290432,11.6645536 C86.8213378,11.8096844 87.6223539,12.0636633 88.0956816,12.4627731 C88.6054191,12.8256002 88.8602879,13.4424063 88.8602879,14.2769086 C88.8602879,15.0388454 88.5690093,15.6919342 87.9500423,16.1998921 C87.2979632,16.7419922 86.4685499,17.0261076 85.6198137,16.9981117 L85.6198137,16.9981117 Z M89.0787468,16.8529809 L92.0279424,8.10884813 L94.1761219,8.10884813 L97.0889077,16.8529809 L95.3776461,16.8529809 L94.6858594,14.7123011 L91.299746,14.7123011 L90.6443692,16.8529809 L89.0787468,16.8529809 Z M93.0110076,9.45130834 L91.700254,13.5149717 L94.2853514,13.5149717 L93.0110076,9.45130834 Z M98.0719729,16.8529809 L98.0719729,8.10884813 L101.021169,8.10884813 C102.040644,8.10884813 102.84166,8.32654438 103.424217,8.76193688 C104.006774,9.16104667 104.298052,9.81413542 104.298052,10.6849204 L104.298052,10.7212031 C104.298052,11.9548152 103.642676,12.7530348 102.331922,13.0795792 L104.8442,16.8529809 L103.060119,16.8529809 L100.72989,13.3335581 L99.7104149,13.3335581 L99.7104149,16.8529809 L98.0719729,16.8529809 Z M99.7104149,12.1725115 L101.021169,12.1725115 C102.149873,12.1725115 102.69602,11.7008363 102.69602,10.7574858 L102.69602,10.7212031 C102.69602,10.2495279 102.550381,9.88670084 102.259102,9.7052873 C101.967824,9.48759105 101.567316,9.37874292 101.021169,9.37874292 L99.7104149,9.37874292 L99.7104149,12.1725115 Z M107.392887,15.5830861 L108.375953,15.5830861 C109.322608,15.5830861 110.050804,15.3291071 110.560542,14.7848665 C111.03387,14.2769086 111.288738,13.5149717 111.288738,12.4990558 L111.288738,12.4264904 C111.288738,10.3946588 110.305673,9.37874292 108.339543,9.37874292 L107.392887,9.37874292 L107.392887,15.5830861 Z M105.754445,16.8529809 L105.754445,8.10884813 L108.448772,8.10884813 C109.941575,8.10884813 111.070279,8.50795792 111.834886,9.26989479 C112.599492,10.0318317 113,11.0840302 113,12.3902077 L113,12.4990558 C113,13.8415161 112.599492,14.8937146 111.834886,15.6919342 C111.03387,16.4538711 109.905165,16.8529809 108.412362,16.8529809 L105.754445,16.8529809 Z" id="Shape" fill="#FFFFFF"></path>
                        <path d="M27,16.8529809 L29.9491956,8.10884813 L32.0973751,8.10884813 L34.9737511,16.8529809 L33.2988992,16.8529809 L32.5707028,14.7123011 L29.2209992,14.7123011 L28.5292125,16.8529809 L27,16.8529809 Z M30.895851,9.45130834 L29.6215072,13.5149717 L32.2066046,13.5149717 L30.895851,9.45130834 Z M35.3378493,16.8529809 L38.1778154,12.353925 L35.5198984,8.10884813 L37.3767993,8.10884813 L39.2701101,11.2291611 L41.127011,8.10884813 L42.8018628,8.10884813 L40.2167655,12.3176423 L43.0203218,16.8529809 L41.1634208,16.8529809 L39.088061,13.4424063 L37.0127011,16.8529809 L35.3378493,16.8529809 Z M43.38442,16.8529809 L46.2972058,8.10884813 L48.4453853,8.10884813 L51.358171,16.8529809 L49.6833192,16.8529809 L48.9551228,14.7123011 L45.6054191,14.7123011 L44.9136325,16.8529809 L43.38442,16.8529809 Z M47.280271,9.45130834 L45.9695174,13.5149717 L48.5910246,13.5149717 L47.280271,9.45130834 Z M54.9263336,16.8529809 L54.9263336,8.10884813 L57.1109229,8.10884813 L59.4047417,14.095495 L61.6985605,8.10884813 L63.8467401,8.10884813 L63.8467401,16.8529809 L62.2082981,16.8529809 L62.2082981,10.2495279 L59.5867909,16.8529809 L59.0770533,16.8529809 L56.3827265,10.2495279 L56.3827265,16.8529809 L54.9263336,16.8529809 Z M64.8298052,16.8529809 L67.7790008,8.10884813 L69.9271804,8.10884813 L72.8399661,16.8529809 L71.1287045,16.8529809 L70.4369179,14.7123011 L67.0508044,14.7123011 L66.3590178,16.8529809 L64.8298052,16.8529809 Z M68.762066,9.45130834 L67.4513124,13.5149717 L70.0364098,13.5149717 L68.762066,9.45130834 Z M73.7866215,16.8529809 L73.7866215,8.10884813 L75.7527519,8.10884813 L79.4665538,14.4220394 L79.4665538,8.10884813 L80.9593565,8.10884813 L80.9593565,16.8529809 L79.2480948,16.8529809 L75.2794242,10.1406798 L75.2794242,16.8529809 L73.7866215,16.8529809 Z M85.6198137,16.9981117 C84.4546994,16.9981117 83.5808637,16.7441327 83.0347163,16.2361748 C82.4480851,15.6900635 82.1068672,14.9315426 82.088061,14.1317777 L83.6536833,14.1317777 C83.726503,14.6760184 83.8721423,15.0751281 84.1634208,15.3291071 C84.4546994,15.6193688 84.9280271,15.7644996 85.6198137,15.7644996 C86.0931414,15.7644996 86.4936494,15.6556515 86.8213378,15.4016725 C87.1126164,15.1476936 87.2582557,14.8211492 87.2582557,14.4220394 C87.2582557,14.0229296 87.1490262,13.6963852 86.8941575,13.5149717 C86.6392887,13.3335581 86.165961,13.1884273 85.4377646,13.0795792 C84.3454699,12.9344483 83.5444539,12.6441867 83.0711262,12.2813596 C82.5613887,11.9185325 82.3429297,11.3017265 82.3429297,10.5035069 C82.3429297,9.77785271 82.6342083,9.19732938 83.1803556,8.72565417 C83.7629128,8.25397896 84.4911092,8 85.4013548,8 C86.3480102,8 87.1126164,8.21769625 87.6587638,8.65308875 C88.2049111,9.08848125 88.5325995,9.7052873 88.6054191,10.5397896 L87.1126164,10.5397896 C87.003387,10.0681144 86.8577477,9.74157 86.5664691,9.56015646 C86.3116003,9.34246021 85.9110923,9.23361209 85.4013548,9.23361209 C84.9280271,9.23361209 84.5275191,9.34246021 84.2726503,9.56015646 C84.0177815,9.74157 83.8721423,10.0318317 83.8721423,10.358376 C83.8721423,10.7574858 84.0177815,11.0477475 84.2362405,11.2291611 C84.4911092,11.4105746 84.9644369,11.5557054 85.6926334,11.6645536 C86.784928,11.8096844 87.5859441,12.0636633 88.0956816,12.4627731 C88.6054191,12.8256002 88.8602879,13.4424063 88.8602879,14.2769086 C88.8602879,15.0388454 88.5690093,15.6919342 87.9500423,16.1998921 C87.2979632,16.7419922 86.4685499,17.0261076 85.6198137,16.9981117 Z M89.0787468,16.8529809 L92.0279424,8.10884813 L94.1761219,8.10884813 L97.0889077,16.8529809 L95.3776461,16.8529809 L94.6858594,14.7123011 L91.299746,14.7123011 L90.6079594,16.8529809 L89.0787468,16.8529809 Z M93.0110076,9.45130834 L91.700254,13.5149717 L94.2853514,13.5149717 L93.0110076,9.45130834 Z M98.0719729,16.8529809 L98.0719729,8.10884813 L101.021169,8.10884813 C102.040644,8.10884813 102.84166,8.32654438 103.424217,8.76193688 C104.006774,9.16104667 104.298052,9.81413542 104.298052,10.6849204 L104.298052,10.7212031 C104.298052,11.9548152 103.642676,12.7530348 102.331922,13.0795792 L104.80779,16.8529809 L103.060119,16.8529809 L100.72989,13.3335581 L99.7104149,13.3335581 L99.7104149,16.8529809 L98.0719729,16.8529809 Z M99.7104149,12.1725115 L101.021169,12.1725115 C102.113463,12.1725115 102.69602,11.7008363 102.69602,10.7574858 L102.69602,10.7212031 C102.69602,10.2495279 102.550381,9.88670084 102.259102,9.7052873 C101.967824,9.48759105 101.567316,9.37874292 101.021169,9.37874292 L99.7104149,9.37874292 L99.7104149,12.1725115 Z M107.392887,15.5830861 L108.375953,15.5830861 C109.322608,15.5830861 110.050804,15.3291071 110.560542,14.7848665 C111.03387,14.2769086 111.288738,13.5149717 111.288738,12.4990558 L111.288738,12.4264904 C111.288738,10.3946588 110.305673,9.37874292 108.339543,9.37874292 L107.392887,9.37874292 L107.392887,15.5830861 Z M105.754445,16.8529809 L105.754445,8.10884813 L108.448772,8.10884813 C109.941575,8.10884813 111.070279,8.50795792 111.834886,9.26989479 C112.599492,10.0318317 113,11.0840302 113,12.3902077 L113,12.4990558 C113,13.8415161 112.599492,14.8937146 111.834886,15.6919342 C111.03387,16.4538711 109.905165,16.8529809 108.412362,16.8529809 L105.754445,16.8529809 Z" id="Shape" fill="#FFFFFF"></path>
                    </g>
                </g>
            </g>
        </g>
    </g>
</svg>