<?xml version="1.0" encoding="UTF-8"?>
<svg width="16px" height="16px" viewBox="0 0 16 16" version="1.1" xmlns="http://www.w3.org/2000/svg" xmlns:xlink="http://www.w3.org/1999/xlink">
    <title>google</title>
    <g id="Website" stroke="none" stroke-width="1" fill="none" fill-rule="evenodd">
        <g id="Login" transform="translate(-794.000000, -568.000000)">
            <g id="Login-box" transform="translate(499.000000, 233.000000)">
                <g id="Google" transform="translate(69.000000, 320.000000)">
                    <g id="google" transform="translate(226.000000, 15.000000)">
                        <path d="M8.43253333,2.9366306 C9.65973333,2.9366306 10.7586667,3.3137558 11.6253333,4.04945904 L14,1.93199382 C12.5578667,0.735703246 10.6754667,0 8.43253333,0 C5.1808,0 2.36933333,1.66306028 1,4.08655332 L3.7664,6 C4.4216,4.24111283 6.2624,2.9366306 8.43253333,2.9366306 Z" id="Path" fill="#EA4335" fill-rule="nonzero"></path>
                        <path d="M16,8.43468468 C16,7.93963964 15.9477807,7.46036036 15.8677111,7 L8,7 L8,9.84414414 L12.5047868,9.84414414 C12.3028721,10.7774775 11.7180157,11.5720721 10.8407311,12.1081081 L13.5317668,14 C15.1018277,12.681982 16,10.7333333 16,8.43468468 L16,8.43468468 Z" id="Path" fill="#4285F4" fill-rule="nonzero"></path>
                        <path d="M4,9.99025974 C3.81766382,9.51948052 3.71130104,9.01948052 3.71130104,8.5 C3.71130104,7.98051948 3.81386515,7.48051948 4,7.00974026 L0.968660969,5 C0.349477683,6.05194805 0,7.24025974 0,8.5 C0,9.75974026 0.349477683,10.9480519 0.972459639,12 L4,9.99025974 Z" id="Path" fill="#FBBC05" fill-rule="nonzero"></path>
                        <path d="M7.89341189,16 C9.97589716,16 11.7273701,15.3419156 13,14.2049434 L10.5158007,12.3511843 C9.8248527,12.7991761 8.93465453,13.061792 7.89341189,13.061792 C5.88162828,13.061792 4.1751473,11.7579815 3.56454205,10 L1,11.9124614 C2.27262989,14.3377961 4.87895019,16 7.89341189,16 Z" id="Path" fill="#34A853" fill-rule="nonzero"></path>
                        <polygon id="Path" points="0 0 16 0 16 16 0 16"></polygon>
                    </g>
                </g>
            </g>
        </g>
    </g>
</svg>