<?xml version="1.0" encoding="UTF-8"?>
<svg width="18px" height="18px" viewBox="0 0 18 18" version="1.1" xmlns="http://www.w3.org/2000/svg" xmlns:xlink="http://www.w3.org/1999/xlink">
    <title>Shape</title>
    <g id="Symbols" stroke="none" stroke-width="1" fill="none" fill-rule="evenodd">
        <g id="Footer" transform="translate(-1219.000000, -488.000000)" fill="#FFFFFF">
            <g id="Social-icons">
                <g transform="translate(1099.000000, 488.000000)">
                    <path d="M128.999982,1.62165445 C131.403097,1.62165445 131.687723,1.63080019 132.636737,1.67409957 C133.514228,1.71414792 133.990771,1.8607656 134.307942,1.98398304 C134.728003,2.14724883 135.027848,2.34231037 135.342769,2.65723115 C135.65769,2.97215193 135.852751,3.27199652 136.015981,3.69205761 C136.139234,4.0092291 136.285852,4.4857723 136.3259,5.36322768 C136.3692,6.31227709 136.378346,6.59690259 136.378346,9.00001786 C136.378346,11.4031331 136.3692,11.6877586 136.3259,12.6367723 C136.285852,13.5142634 136.139234,13.9908066 136.015981,14.3079781 C135.852751,14.7280392 135.65769,15.0278838 135.342769,15.3428046 C135.027848,15.6577254 134.728003,15.8527869 134.307942,16.016017 C133.990771,16.1392701 133.514228,16.2858878 132.636737,16.3259362 C131.687866,16.3692355 131.40324,16.3783813 128.999982,16.3783813 C126.596724,16.3783813 126.312098,16.3692355 125.363228,16.3259362 C124.485737,16.2858878 124.009193,16.1392701 123.692058,16.016017 C123.271961,15.8527869 122.972116,15.6577254 122.657195,15.3428046 C122.342275,15.0278838 122.147213,14.7280392 121.983983,14.3079781 C121.86073,13.9908066 121.714112,13.5142634 121.674064,12.636808 C121.630764,11.6877586 121.621619,11.4031331 121.621619,9.00001786 C121.621619,6.59690259 121.630764,6.31227709 121.674064,5.36326341 C121.714112,4.4857723 121.86073,4.0092291 121.983983,3.69205761 C122.147213,3.27199652 122.342275,2.97215193 122.657195,2.65723115 C122.972116,2.34231037 123.271961,2.14724883 123.692058,1.98398304 C124.009193,1.8607656 124.485737,1.71414792 125.363192,1.67409957 C126.312241,1.63080019 126.596867,1.62165445 128.999982,1.62165445 M129.986476,0.000819687684 C131.554023,0.00397927735 131.898421,0.0170988009 132.710653,0.0541599433 C133.668634,0.0978880242 134.32284,0.250007443 134.895342,0.472506207 C135.487172,0.702507339 135.98908,1.01024728 136.489416,1.5105837 C136.989753,2.01092011 137.297493,2.51282845 137.527494,3.10465802 C137.749993,3.67716006 137.902112,4.33136644 137.94584,5.28934723 C137.98964,6.24925721 138,6.55574675 138,9.00001786 C138,11.444289 137.98964,11.7507785 137.94584,12.7106885 C137.902112,13.6686693 137.749993,14.3228757 137.527494,14.8953777 C137.297493,15.4872073 136.989753,15.9891156 136.489416,16.489452 C135.98908,16.9897884 135.487172,17.2975284 134.895342,17.5275295 C134.32284,17.7500283 133.668634,17.9021477 132.710653,17.9458758 C131.750743,17.9896753 131.444253,18 128.999982,18 C126.555711,18 126.249257,17.9896753 125.289312,17.9458758 C124.331331,17.9021477 123.677124,17.7500283 123.104622,17.5275295 C122.512793,17.2975284 122.010884,16.9897884 121.510548,16.489452 C121.010212,15.9891156 120.702472,15.4871715 120.47247,14.8953777 C120.249972,14.3228757 120.097852,13.6686693 120.054124,12.7106885 C120.017063,11.898457 120.003969,11.554059 120.000817,9.98651153 L120.000817,8.01352419 C120.003969,6.44597671 120.017063,6.10157875 120.054124,5.28934723 C120.097852,4.33136644 120.249972,3.67716006 120.47247,3.10465802 C120.702472,2.51282845 121.010212,2.01092011 121.510548,1.5105837 C122.010884,1.01024728 122.512793,0.702507339 123.104622,0.472506207 C123.677124,0.250007443 124.331331,0.0978880242 125.289312,0.0541599433 C126.101573,0.0170988009 126.44595,0.00397927735 128.013491,0.000819687684 Z M129.017857,4.39285714 C126.463551,4.39285714 124.392857,6.4635515 124.392857,9.01785714 C124.392857,11.5721628 126.463551,13.6428571 129.017857,13.6428571 C131.572163,13.6428571 133.642857,11.5721628 133.642857,9.01785714 C133.642857,6.4635515 131.572163,4.39285714 129.017857,4.39285714 Z M129.017857,6.01565601 C130.675907,6.01565601 132.020058,7.35980725 132.020058,9.01785714 C132.020058,10.675907 130.675907,12.0200583 129.017857,12.0200583 C127.359807,12.0200583 126.015656,10.675907 126.015656,9.01785714 C126.015656,7.35980725 127.359807,6.01565601 129.017857,6.01565601 Z M133.785732,3.10714286 C133.193993,3.10714286 132.714286,3.58681452 132.714286,4.17855371 C132.714286,4.77029289 133.193993,5.25 133.785732,5.25 C134.377471,5.25 134.857143,4.77029289 134.857143,4.17855371 C134.857143,3.58681452 134.377471,3.10714286 133.785732,3.10714286 Z" id="Shape"></path>
                </g>
            </g>
        </g>
    </g>
</svg>