<?xml version="1.0" encoding="UTF-8"?>
<svg width="18px" height="18px" viewBox="0 0 18 18" version="1.1" xmlns="http://www.w3.org/2000/svg" xmlns:xlink="http://www.w3.org/1999/xlink">
    <title>Shape</title>
    <g id="Symbols" stroke="none" stroke-width="1" fill="none" fill-rule="evenodd">
        <g id="Footer" transform="translate(-1282.000000, -488.000000)" fill="#282828">
            <g id="Social-icons">
                <g transform="translate(1099.000000, 488.000000)">
                    <path d="M183,6 L187,6 L187,18 L183,18 L183,6 Z M184.99006,4 L184.966203,4 C183.77336,4 183,3.11871774 183,2.00271665 C183,0.863895681 183.796223,0 185.012922,0 C186.228628,0 186.976143,0.861722358 187,1.99945667 C187,3.11545776 186.228628,4 184.99006,4 L184.99006,4 Z M201,18 L196.986833,18 L196.986833,11.8487677 C196.986833,10.2389843 196.359075,9.14115011 194.978648,9.14115011 C193.922776,9.14115011 193.335587,9.88162808 193.062278,10.5974608 C192.959786,10.8528753 192.975801,11.2102315 192.975801,11.568708 L192.975801,18 L189,18 C189,18 189.051246,7.10455564 189,6.11426438 L192.975801,6.11426438 L192.975801,7.97946229 C193.210676,7.1639283 194.481139,6 196.508541,6 C199.023843,6 201,7.71060493 201,11.39059 L201,18 L201,18 Z" id="Shape"></path>
                </g>
            </g>
        </g>
    </g>
</svg>