<?xml version="1.0" encoding="UTF-8"?>
<svg width="21px" height="18px" viewBox="0 0 21 18" version="1.1" xmlns="http://www.w3.org/2000/svg" xmlns:xlink="http://www.w3.org/1999/xlink">
    <title>Shape</title>
    <g id="Symbols" stroke="none" stroke-width="1" fill="none" fill-rule="evenodd">
        <g id="Footer" transform="translate(-1153.000000, -488.000000)" fill="#FFFFFF">
            <g id="Social-icons">
                <g transform="translate(1099.000000, 488.000000)">
                    <path d="M72.526149,2.84573162 C73.4160944,2.28412538 74.0989611,1.39361548 74.41944,0.332803698 C73.5861948,0.85410949 72.6654341,1.23111368 71.6830428,1.43521595 C70.899102,0.551206125 69.7786582,0 68.5386512,0 C66.1597112,0 64.231907,2.03452261 64.231907,4.54355048 C64.231907,4.89975444 64.2676528,5.2468583 64.3416094,5.57836198 C60.762106,5.38855987 57.5881317,3.58153979 55.4618771,0.83070923 C55.0908611,1.50411671 54.8788519,2.28412538 54.8788519,3.11613462 C54.8788519,4.69175213 55.6393731,6.08276759 56.7955626,6.89917666 C56.0892763,6.8757764 55.4248987,6.6690741 54.8431062,6.33107035 L54.8431062,6.38697097 C54.8431062,8.58919544 56.3271703,10.4261158 58.3005811,10.8421205 C57.9381933,10.9487217 57.558549,11.0020222 57.1641134,11.0020222 C56.8867758,11.0020222 56.6156013,10.9747219 56.3542877,10.9214213 C56.9015672,12.7258414 58.4928685,14.041456 60.3787639,14.0765564 C58.9033281,15.29597 57.0457827,16.021378 55.0279979,16.021378 C54.6804015,16.021378 54.3365029,16.0018778 54,15.9589773 C55.9068498,17.2472916 58.1711569,18 60.6043317,18 C68.5300229,18 72.8614193,11.0761231 72.8614193,5.07135635 C72.8614193,4.87375415 72.858954,4.67745197 72.8503258,4.48374982 C73.6921993,3.8428427 74.4243705,3.0420338 75,2.13072367 C74.2271527,2.49212769 73.3963726,2.73653041 72.526149,2.84573162 Z" id="Shape"></path>
                </g>
            </g>
        </g>
    </g>
</svg>